<svg width="400" height="400" xmlns="http://www.w3.org/2000/svg">
  <g transform="translate(200, 200)">
    <!-- requestTime -->
    <path d="M0,-180 A180,180 0 0,1 35.76,-176.66 L0,0 Z" fill="#FF6384"/>
    <!-- createTaskTime -->
    <path d="M35.76,-176.66 A180,180 0 0,1 53.59,-171.92 L0,0 Z" fill="#36A2EB"/>
    <!-- prepareTime -->
    <path d="M53.59,-171.92 A180,180 0 0,1 69.86,-165.92 L0,0 Z" fill="#FFCE56"/>
    <!-- memoryTime -->
    <path d="M69.86,-165.92 A180,180 0 0,1 116.95,-137.34 L0,0 Z" fill="#4BC0C0"/>
    <!-- transactionTime -->
    <path d="M116.95,-137.34 A180,180 0 0,1 -0.00,-180.00 L0,0 Z" fill="#9966FF"/>
  </g>
  
  <!-- Legend -->
  <g transform="translate(10, 350)">
    <rect width="20" height="20" fill="#FF6384"/>
    <text x="25" y="15" font-family="Arial" font-size="12">requestTime (12.26)</text>
    <rect y="25" width="20" height="20" fill="#36A2EB"/>
    <text x="25" y="40" font-family="Arial" font-size="12">createTaskTime (5.93)</text>
    <rect y="50" width="20" height="20" fill="#FFCE56"/>
    <text x="25" y="65" font-family="Arial" font-size="12">prepareTime (5.34)</text>
    <rect y="75" width="20" height="20" fill="#4BC0C0"/>
    <text x="25" y="90" font-family="Arial" font-size="12">memoryTime (16.07)</text>
    <rect y="100" width="20" height="20" fill="#9966FF"/>
    <text x="25" y="115" font-family="Arial" font-size="12">transactionTime (187.72)</text>
  </g>
</svg>